<?xml version="1.0" standalone="no"?><!DOCTYPE svg PUBLIC "-//W3C//DTD SVG 1.1//EN" "http://www.w3.org/Graphics/SVG/1.1/DTD/svg11.dtd"><svg t="1553651758025" class="icon" style="" viewBox="0 0 1024 1024" version="1.1" xmlns="http://www.w3.org/2000/svg" p-id="2753" xmlns:xlink="http://www.w3.org/1999/xlink" width="200" height="200"><defs><style type="text/css"></style></defs><path d="M512 1024C229.6832 1024 0 794.3168 0 512 0 229.6832 229.6832 0 512 0 794.3168 0 1024 229.6832 1024 512 1024 794.3168 794.3168 1024 512 1024ZM512 97.536C283.4432 97.536 97.536 283.4432 97.536 512 97.536 740.5568 283.4432 926.464 512 926.464 740.5568 926.464 926.464 740.5568 926.464 512 926.464 283.4432 740.5568 97.536 512 97.536ZM509.4912 638.72C475.904 616.5504 424.8576 623.2576 390.0928 632.7296L390.0928 804.5568 292.5568 804.5568 292.5568 308.1728 321.6384 295.3216C327.3728 292.7616 464.0256 233.5744 563.3024 299.264 613.376 332.3904 702.6176 341.9136 732.7744 342.784L780.1344 344.1664 780.1856 699.8016 730.1632 698.4704C724.5824 698.3168 593.3056 694.2208 509.4912 638.72ZM682.6496 436.3264C635.5456 430.3872 562.8416 415.9488 509.4912 380.5696 475.904 358.4 424.8576 365.056 390.0928 374.5792L390.0928 532.8384C408.4736 529.2032 429.4144 526.5408 451.2768 526.5408 488.3456 526.5408 528.128 534.1184 563.3024 557.4144 595.7632 578.9184 644.2496 590.4384 682.6496 596.1728L682.6496 436.3264Z" p-id="2754"></path></svg>