<?xml version="1.0" standalone="no"?><!DOCTYPE svg PUBLIC "-//W3C//DTD SVG 1.1//EN" "http://www.w3.org/Graphics/SVG/1.1/DTD/svg11.dtd"><svg t="1563847865496" class="icon" viewBox="0 0 1024 1024" version="1.1" xmlns="http://www.w3.org/2000/svg" p-id="4398" xmlns:xlink="http://www.w3.org/1999/xlink" width="128" height="128"><defs><style type="text/css"></style></defs><path d="M898.773927 375.649566c0-45.569872-36.941354-82.506109-82.506109-82.506109L211.142861 293.143457c-45.565778 0-82.506109 36.94033-82.506109 82.506109l0 385.332089c0 45.569872 36.94033 82.506109 82.506109 82.506109l605.124957 0c45.564755 0 82.506109-36.936237 82.506109-82.506109L898.773927 375.649566 898.773927 375.649566zM734.99377 377.23876c30.375821 0 55.004755 24.628934 55.004755 55.004755 0 30.379914-24.628934 55.004755-55.004755 55.004755-30.379914 0-55.008848-24.62484-55.008848-55.004755C679.983899 401.867694 704.613856 377.23876 734.99377 377.23876L734.99377 377.23876zM789.998525 791.622512 239.944837 791.622512c-30.379914 0-56.803727-21.658276-56.803727-52.03512l0-33.111119 196.055235-226.393193 0.453325 0.158612 0.36532-0.213871c2.467191-2.839675 38.20309-42.512233 74.910107 0.079818l134.751007 156.249647 48.279586-56.794517c6.79987-7.584746 34.994002-34.579563 64.719001 0.89744l133.298935 187.774641C826.145793 783.207865 809.240775 791.622512 789.998525 791.622512L789.998525 791.622512zM789.998525 791.622512" p-id="4399" fill="#ffffff"></path><path d="M194.144722 269.402753l641.653919 0c2.517333 0 4.999874 0.217964 7.458879 0.449231-14.217816-19.002796-36.908608-31.219026-62.463634-31.219026L249.149477 238.632959c-25.560142 0-48.246841 12.216229-62.467727 31.219026C189.139731 269.620717 191.623295 269.402753 194.144722 269.402753L194.144722 269.402753zM194.144722 269.402753" p-id="4400" fill="#ffffff"></path><path d="M235.398288 214.017328l559.146786 0c2.517333 0 4.999874 0.213871 7.457856 0.449231-14.216793-19.002796-36.907585-31.219026-62.46261-31.219026L290.403043 183.247534c-25.560142 0-48.246841 12.216229-62.46261 31.219026C230.393297 214.231199 232.880955 214.017328 235.398288 214.017328L235.398288 214.017328zM235.398288 214.017328" p-id="4401" fill="#ffffff"></path></svg>