<?xml version="1.0" standalone="no"?><!DOCTYPE svg PUBLIC "-//W3C//DTD SVG 1.1//EN" "http://www.w3.org/Graphics/SVG/1.1/DTD/svg11.dtd"><svg t="1559102119303" class="icon" style="" viewBox="0 0 1024 1024" version="1.1" xmlns="http://www.w3.org/2000/svg" p-id="8144" xmlns:xlink="http://www.w3.org/1999/xlink" width="200" height="200"><defs><style type="text/css"></style></defs><path d="M901.339429 229.522286c31.451429 58.514286 49.371429 124.781714 49.371428 195.291428 0 109.714286-43.227429 209.408-113.810286 284.745143-1.389714 1.901714-2.194286 4.169143-4.022857 5.851429l-280.137143 284.452571a41.691429 41.691429 0 0 1-7.753142 11.264 44.544 44.544 0 0 1-49.590858 8.045714 43.666286 43.666286 0 0 1-14.628571-9.362285c-0.731429-0.731429-1.024-1.755429-1.682286-2.56L191.561143 715.337143c-2.340571-2.194286-3.584-5.046857-5.266286-7.68A414.793143 414.793143 0 0 1 74.166857 424.813714C74.166857 190.171429 270.409143 0 512.438857 0 599.04 0 679.497143 24.649143 747.300571 66.56c0.731429 0.292571 1.316571 0.877714 2.048 1.170286 3.145143 1.974857 6.436571 3.730286 9.508572 5.851428 1.097143 0.731429 2.340571 1.462857 3.364571 2.340572a432.493714 432.493714 0 0 1 124.489143 129.389714 41.545143 41.545143 0 0 1 14.628572 24.137143z m-389.12 369.444571c97.865143 0 177.152-76.873143 177.152-171.666286 0-94.866286-79.286857-171.739429-177.152-171.739428-97.792 0-177.152 76.873143-177.152 171.739428 0 94.793143 79.36 171.666286 177.152 171.666286z" p-id="8145"></path></svg>