<?xml version="1.0" standalone="no"?><!DOCTYPE svg PUBLIC "-//W3C//DTD SVG 1.1//EN" "http://www.w3.org/Graphics/SVG/1.1/DTD/svg11.dtd"><svg t="1553652494739" class="icon" style="" viewBox="0 0 1024 1024" version="1.1" xmlns="http://www.w3.org/2000/svg" p-id="15494" xmlns:xlink="http://www.w3.org/1999/xlink" width="200" height="200"><defs><style type="text/css"></style></defs><path d="M954.133394 469.63478l-0.503059 0.055962c-1.788787-17.5515-15.706951-31.469863-33.202489-33.202489l-7.602046 0-12.856084 0 0-0.279411c-21.911544 0-40.916259-12.632635-50.027481-31.078529-2.179922-4.52753-3.856785-9.334671-4.751179-14.477184-4.136396-11.458831-8.77585-22.638051-14.030088-33.537861 0-0.055962 0-0.055962-0.055962-0.055962-2.627219-3.856785-4.751179-8.049143-6.316318-12.520911 0-0.055962 0-0.055962 0-0.055962-2.068198-5.813259-3.18604-12.129576-3.18604-18.61358 0-15.42754 6.204393-29.401666 16.377696-39.463044l-0.055962 0 0 0 11.346907-11.347107c0.167686-0.111724 0.279411-0.223648 0.447297-0.391335 0.111724-0.167686 0.279411-0.279411 0.391335-0.447097 13.247618-13.638753 13.918163-34.879552 2.12396-49.356736l0.223648-0.167686c-8.719888-10.452713-17.830911-20.458129-27.38943-29.960687-9.781768-9.83773-20.011033-19.172601-30.687194-28.004213l-0.111724 0.111724c-13.079932-10.732124-31.860998-11.067496-45.388027-1.173804l-8.160867 8.160867-7.71357 7.601846-0.335373-0.335373c-16.265972 16.321734-40.133789 20.458129-60.256546 12.353225-2.738943-1.06208-5.365962-2.40357-7.937418-3.912747-12.856084-6.204593-26.103702-11.682479-39.742455-16.377696-2.40357-0.614783-4.751179-1.453215-7.098787-2.40357 0 0-0.055962 0-0.055962-0.055962-6.65169-2.627219-12.968008-6.763414-18.389932-12.185538-9.111223-9.111223-14.36546-20.625816-15.930599-32.475981-0.614783-4.639454-0.614783-9.334671 0-13.974126l0-9.614282c0-18.334169-13.247618-33.538061-30.687194-36.668139-2.179922-0.223648-4.304082-0.391335-6.539766-0.559021l0.055762 0c-12.297262-0.950156-24.706249-1.509177-37.22716-1.509177-12.520711 0-24.929898 0.559021-37.22716 1.565139l0 0c-2.179922 0.167686-4.359844 0.335373-6.539966 0.559021-17.439776 3.074316-30.687194 18.334169-30.687194 36.612377l0 16.601344c0 23.979742-15.091968 44.437871-36.277004 52.319128-1.34149 0.559021-2.738943 1.006118-4.136396 1.397453-14.924281 5.030589-29.345704 11.011534-43.208105 17.942835-0.111724 0-0.111724 0.055962-0.167686 0.055962-1.118042 0.614783-2.179922 1.117842-3.353726 1.676863-7.098787 3.242002-14.924481 5.030789-23.253034 5.030789-15.42754 0-29.401666-6.260355-39.463044-16.377696l-0.055962 0.111724-11.794204-11.738241c-12.968008-12.968008-32.97904-14.36546-47.456225-4.304082-1.676863 1.34149-3.353726 2.738943-4.918865 4.080433-0.111724 0.111724-0.167686 0.167686-0.223648 0.223648-9.502357 8.049143-18.669542 16.433658-27.445192 25.209308-8.77585 8.77585-17.160165 17.886873-25.153546 27.333468 0 0-0.055962 0-0.055962 0.055962-1.453215 1.676863-2.850667 3.353726-4.24812 5.086551-10.173103 14.533147-8.719888 34.599941 4.24812 47.567949l11.738241 11.738241c16.880755 16.936717 20.681778 41.978339 11.346907 62.548192-0.559021 1.285528-1.173804 2.571257-1.900511 3.801023-6.875339 13.862401-12.856283 28.283624-17.830911 43.040419-0.447097 1.621101-1.006118 3.130278-1.621101 4.639454 0 0 0 0 0 0.055962-2.682981 7.043025-6.875339 13.750477-12.632635 19.396049-10.89981 10.89981-25.153546 16.377696-39.463044 16.377696l0 0.167686-16.601344 0c-18.334169 0-33.538061 13.191656-36.668139 30.631232-0.223648 2.12396-0.447097 4.304082-0.614783 6.539966l0 0c-1.006118 12.017652-1.509177 24.98586-1.509177 37.22716l0 0c0 0.111724 0 0.223648 0 0.279411 0 0.111724 0 0.279411 0 0.335373l0 0c0 12.353225 0.503059 24.538563 1.509177 36.556415l0 0.055962c0.167686 2.179922 0.391335 4.359844 0.614783 6.539766 3.130278 17.439776 18.278207 30.687194 36.556415 30.687194 0 0 0 0 0.055962 0l16.657106 0 0 0c23.756093 0 44.046536 14.868519 52.095679 35.829707 0 0.055962 0 0.055962 0 0.055962 0.559021 1.397453 1.006118 2.794905 1.34149 4.192158 0.055962 0.055962 0.055962 0.167686 0.167686 0.279411 4.974827 14.868519 11.011534 29.289742 17.886873 43.208105 0.055962 0.055962 0.111724 0.167686 0.167686 0.223648 0.614783 1.06208 1.117842 2.179922 1.676863 3.353726 3.242002 7.098987 5.086551 14.980243 5.086551 23.253034 0 15.42754-6.260355 29.401666-16.377696 39.463044l0.055962 0.055962-11.346907 11.346907c-0.167686 0.111724-0.279411 0.279411-0.447097 0.391335-0.167686 0.167686-0.279411 0.279411-0.391335 0.447297-12.408987 12.800321-13.806439 32.308295-4.192158 46.617793 1.621101 1.956474 3.242002 3.912747 4.863103 5.813259 7.937418 9.390633 16.265972 18.389932 24.98586 27.10982l0 0c8.719888 8.719888 17.775148 17.104403 27.165782 25.041622 1.900511 1.620901 3.801023 3.18604 5.701334 4.751179 12.912046 8.719888 30.072411 8.384515 42.705046-0.838432l8.160867-8.160867 7.657808-7.657808 0.335373 0.279411c16.936717-16.880755 42.034301-20.681778 62.660116-11.291145 1.06208 0.447297 2.12416 1.006118 3.130278 1.509177 0.055962 0.055962 0.167686 0.055962 0.279411 0.167686 14.030088 6.987063 28.563234 13.02397 43.59944 18.110521 1.285528 0.391335 2.571257 0.838432 3.801023 1.285728 7.322435 2.738943 14.197774 6.987063 20.122757 12.856283 10.89981 10.89981 16.377696 25.153546 16.377696 39.463044l0.167686 0 0 16.433458c0 19.228563 14.589109 35.1032 33.370375 37.003711l0 0.223449c13.471067 1.285728 27.10982 1.900511 40.972221 1.900511 13.862401 0 27.501154-0.614783 41.028183-1.900511l-0.055962-0.223449c18.725304-1.900511 33.426137-17.775148 33.426137-37.003711l0-16.601344c0-22.414603 13.191656-41.698928 32.196371-50.586502 3.856785-1.844549 7.937418-3.18604 12.185538-4.080433 12.2413-4.304082 24.147428-9.222947 35.717983-14.868519 3.353926-2.179922 6.987063-4.024471 10.732124-5.365962 6.036907-2.291846 12.632635-3.577375 19.563736-3.577375 14.141812 0 27.10982 5.3102 37.003512 14.08605 1.676863 1.453215 3.297964 3.018553 4.807141 4.751179l9.502357 9.558319 0.055962-0.055962c13.079732 13.079732 33.593823 14.36526 48.12697 3.856785 0.055962 0 0.111724-0.055962 0.167686-0.167686 1.229766-1.006118 2.40357-1.956274 3.577375-2.962591 9.781968-8.272591 19.172601-16.880755 28.171899-25.880053 8.999298-8.999298 17.663224-18.389932 25.880253-28.171899 1.06188-1.285528 2.12396-2.571257 3.18604-3.856785 10.229065-14.030088 9.334871-33.538061-2.515295-46.673755l-0.055962-0.055962-2.683181-2.627019 0 0-10.396751-10.396751 0-0.055962c-16.657106-16.657306-20.569854-41.195869-11.794204-61.542074 0.838432-1.900511 1.732625-3.801023 2.794705-5.58981 6.595728-13.415105 12.353225-27.333468 17.27209-41.642966 0.559021-1.900511 1.117842-3.801023 1.900511-5.58961 2.682981-6.987063 6.875339-13.471067 12.520911-19.116639 10.843848-10.844048 25.153546-16.321734 39.463044-16.321734l0-0.055962 16.042323 0 0-0.223648c19.899108 0 36.16508-15.650989 37.115436-35.270686l0.558821 0.055962c1.118042-12.912046 1.677063-25.936015 1.677063-39.015947C956.033905 496.968248 955.36336 483.21777 954.133394 469.63478zM737.422324 510.886611 737.422324 510.886611c0 26.04774-4.304082 51.089561-12.353225 74.398358-3.018354 8.887574-6.65169 17.5515-10.676162 25.880053-11.123458 22.8617-26.04774 43.59944-43.767126 61.486312-17.775148 17.831111-38.456926 32.755392-61.262664 43.990574-8.440277 4.192158-17.160165 7.825494-26.103702 10.89981-23.308997 8.160867-48.350618 12.520711-74.398358 12.632635-0.223648 0-0.447097 0-0.670745 0-25.824291 0-50.586502-4.24812-73.727613-12.129576-9.334671-3.130078-18.334169-6.875339-26.998095-11.123458-22.749976-11.123458-43.319829-25.880253-61.039016-43.59944-17.886873-17.775148-32.811354-38.400964-43.990574-61.262664-4.304082-8.608164-8.049143-17.5515-11.17922-26.718685-7.937418-23.197072-12.297262-48.015246-12.353225-73.895299 0.055962-25.824291 4.359844-51.816069 12.353225-74.957379 3.130278-9.222947 6.875339-18.166483 11.123458-26.774447 11.235183-22.805738 26.103702-43.487515 43.990574-61.262664 17.886873-17.775148 38.624613-32.643668 61.486312-43.822888 8.552202-4.136396 17.439776-7.825494 26.550799-10.89981 23.14111-7.881456 47.903322-12.129576 73.727613-12.129576 0.223648 0 0.447097 0 0.670745 0 26.103702 0.111724 51.145323 4.52773 74.45432 12.576673 8.943536 3.074316 17.663224 6.763414 26.04774 10.89981 22.8617 11.235183 43.543478 26.215426 61.318626 43.990574 17.663224 17.775148 32.420019 38.400964 43.59944 61.039016 4.136396 8.49624 7.825494 17.27209 10.89981 26.32735 7.993181 23.253034 12.353225 48.238694 12.353225 74.17471l0 0.279411L737.422324 510.886011z" p-id="15495"></path></svg>