<?xml version="1.0" standalone="no"?><!DOCTYPE svg PUBLIC "-//W3C//DTD SVG 1.1//EN" "http://www.w3.org/Graphics/SVG/1.1/DTD/svg11.dtd"><svg t="1559206619484" class="icon" style="" viewBox="0 0 1024 1024" version="1.1" xmlns="http://www.w3.org/2000/svg" p-id="1990" xmlns:xlink="http://www.w3.org/1999/xlink" width="200" height="200"><defs><style type="text/css"></style></defs><path d="M900.39 342.24L681.76 123.61c-28.813-28.813-75.528-28.813-104.34 0L183.61 517.42a73.78 73.78 0 0 0-21.451 56.999l13.458 205.172c2.423 36.943 31.85 66.369 68.793 68.793l205.173 13.458a73.78 73.78 0 0 0 56.999-21.451l393.81-393.81c28.811-28.814 28.811-75.528-0.002-104.341zM333.949 690.051c-29.499-29.499-29.499-77.326 0-106.825 29.499-29.499 77.326-29.499 106.825 0 29.499 29.499 29.499 77.326 0 106.825-29.499 29.498-77.326 29.498-106.825 0z" p-id="1991" fill="#ffffff"></path></svg>