<?xml version="1.0" standalone="no"?><!DOCTYPE svg PUBLIC "-//W3C//DTD SVG 1.1//EN" "http://www.w3.org/Graphics/SVG/1.1/DTD/svg11.dtd"><svg t="1553652435358" class="icon" style="" viewBox="0 0 1024 1024" version="1.1" xmlns="http://www.w3.org/2000/svg" p-id="14686" xmlns:xlink="http://www.w3.org/1999/xlink" width="200" height="200"><defs><style type="text/css"></style></defs><path d="M800 372.2v-99.9c0-44.4-36.1-80.5-80.5-80.5h-99.9c-22.3-0.8-44.1 7.7-59.8 23.5L183.7 591.4c-31.4 31.4-31.4 82.4 0 113.8l102.9 102.9c15.7 15.7 36.3 23.5 56.9 23.5s41.2-7.8 56.9-23.5L776.5 432c15.8-15.8 24.3-37.6 23.5-59.8z m-68.8 14.5l-376 376.1c-6.4 6.4-16.9 6.4-23.3 0L229 660c-6.4-6.4-6.4-16.9 0-23.3l376.1-376.1c4.1-4.1 8.8-4.8 11.7-4.8h102.8c9.1 0 16.5 7.4 16.5 16.5v102c0.1 2.7-0.4 8-4.9 12.4z" fill="" p-id="14687"></path><path d="M880.5 405.1V256.2c0-8.8-7.2-16-16-16s-16 7.2-16 16V406.1c0.4 9-3 17.8-9.3 24.2L435.8 832.7c-6.3 6.2-6.3 16.4 0 22.6 3.1 3.1 7.2 4.7 11.3 4.7 4.1 0 8.2-1.6 11.3-4.7L861.8 453c12.6-12.6 19.4-30.1 18.7-47.9z" fill="" p-id="14688"></path><path d="M677.1 314.7m-32 0a32 32 0 1 0 64 0 32 32 0 1 0-64 0Z" fill="" p-id="14689"></path></svg>